# xmcd
#
# Track frame offsets: 
#        183
#        13148
#        21930
#        31448
#        41588
#        51890
#        64133
#        74035
#        82748
#        98343
#        107595
#        118565
#        126238
#        138598
#        150393
#        161900
#        172883
#        185398
#        193563
#        206175
#        213418
#        224353
#        231703
#        241813
#        254025
#        270645
#        279928
#        288185
#        303620
#        312943
#
# Disc length: 4297 seconds
#
# Revision: 4
# Processed by: cddbd v1.5.2PL0 Copyright (c) Steve Scherf et al.
# Submitted via: ExactAudioCopyFreeDBPlugin 1.0
#
DISCID=bd10c71e
DTITLE=Various Artist - 30 sucessos originais em 30 anos de bossa nova
DYEAR=1999
DGENRE=Bossa Nova
TTITLE0=Vinicius, Toquinho e Maria Bethânia - Apelo
TTITLE1=Sansa Trio - Minha namorada
TTITLE2=Alaíde Costa - Onde está você
TTITLE3=Luiz Chaves e seu Conjunto - Influência do Jazz
TTITLE4=Dick Farney - Este seu olhar
TTITLE5=Toquinho - Deixa
TTITLE6=Maricine Costa - Bossa na praia
TTITLE7=Tenório Jr. e seu Conjunto - Inutil paisagem
TTITLE8=Geraldo Vandré com Ana Lúcia - Samba em prelúdio
TTITLE9=Maysa - Se todos fossem iguais a você
TTITLE10=Sambalanço Trio - Nanã
TTITLE11=Walter Santos - Rapaz de bem
TTITLE12=Lobo e Yvette - Aleluia
TTITLE13=Octeto de César Camargo Mariano - Desafinado
TTITLE14=Chico Buarque/ Odete Lara/ MPB-4 - Noite dos mascarados
TTITLE15=Elis Regina e Marcos Valle - Terra de ninguém
TTITLE16=Sambossa 5 - Corcovado
TTITLE17=Maria Creuza - Chega de saudades
TTITLE18=Paulinho Nogueira - O barquinho
TTITLE19=Geraldo Cunha - Vivo sonhando
TTITLE20=Manfredo Fest - Nós e o mar
TTITLE21=Antonio Carlos Jobim - Só tinha de ser com você
TTITLE22=Quarteto de Sabá - Céu e mar
TTITLE23=Agostinho dos Santos ao piano Antonio Carlos Jobim - A felici
TTITLE23=dade
TTITLE24=Zimbo Trio - Garota de Ipanema
TTITLE25=Geraldo Vandré - Quem quiser encontrar o amor
TTITLE26=Wanda - Tristeza de nós dois
TTITLE27=Oscar Castro Neves - Antes e depois
TTITLE28=Os Bossais - Marcha da Quarta Feira de Cinzas
TTITLE29=Jorge Ben - Chove chuva
EXTD=YEAR: 1999
EXTT0=Vin cius, Toquinho e Maria Bet nia\n
EXTT1=Sansa Trio\n
EXTT2=Alaide Costa\n
EXTT3=Luiz Chaves e seu Conjunto\n
EXTT4=Dick Farney\n
EXTT5=Toquinho\n
EXTT6=Maricene Costa\n
EXTT7=Ten rio Jr. e seu Conjunto\n
EXTT8=Geraldo Vandr  com Ana L cia\n
EXTT9=Maysa\n
EXTT10=Sambalan o Trio\n
EXTT11=Walter Santos\n
EXTT12=Ed  Lobo e Yvete\n
EXTT13=Octeto de Cesar Camargo Mariano\n
EXTT14=Chico Buarque de Holanda, Odete Lara \ne MPB-4\n
EXTT15=Elis Regina e Marcos Valle\n
EXTT16=Sambossa 5\n
EXTT17=Maria Creuza\n
EXTT18=Paulinho Nogueira\n
EXTT19=Geraldo Cunha\n
EXTT20=Manfredo Fest\n
EXTT21=Ant nio Carlos Jobim\n
EXTT22=Quarteto de Sab \n
EXTT23=Agostinho dos Santos e ao piano Ant nio \nCarlos Jobim\n
EXTT24=Zimbo Trio\n
EXTT25=Geraldo Vandr \n
EXTT26=Wanda\n
EXTT27=Oscar Castro Neves\n
EXTT28=Os Bossais\n
EXTT29=Jorge Ben\n
PLAYORDER=
